<svg xmlns="http://www.w3.org/2000/svg" width="85" height="24" viewBox="0 0 85 24">
  <g id="FACEBOOK" transform="translate(-849 -974)">
    <text id="_Vmais_" data-name="/Vmais " transform="translate(872 993)" fill="#fff" font-size="18" font-family="OpenSans, Open Sans"><tspan x="0" y="0">/Vmais </tspan></text>
    <g id="facebook-2" data-name="facebook" transform="translate(849 976.996)">
      <g id="Grupo_2" data-name="Grupo 2">
        <path id="Caminho_42" data-name="Caminho 42" d="M16.773,0H2.227A2.229,2.229,0,0,0,0,2.227V16.773A2.229,2.229,0,0,0,2.227,19H16.773A2.229,2.229,0,0,0,19,16.773V2.227A2.229,2.229,0,0,0,16.773,0Zm.742,16.773a.743.743,0,0,1-.742.742h-4.23V11.467h2.293l.379-2.3H12.543V7.57a1.1,1.1,0,0,1,1.113-1.113h1.521v-2.3H13.656a3.413,3.413,0,0,0-3.413,3.421V9.166H8.016v2.3h2.227v6.049H2.227a.743.743,0,0,1-.742-.742V2.227a.743.743,0,0,1,.742-.742H16.773a.743.743,0,0,1,.742.742Z" fill="#d6a426"/>
      </g>
    </g>
  </g>
</svg>
