<svg xmlns="http://www.w3.org/2000/svg" width="176.087" height="35.39" viewBox="0 0 176.087 35.39">
  <g id="Grupo_373" data-name="Grupo 373" transform="translate(-386.913 -498.305)">
    <text id="_85_3512_2292" data-name="(85) 3512 2292" transform="translate(438 523)" fill="#fff" font-size="18" font-family="OpenSans-Bold, Open Sans" font-weight="700"><tspan x="0" y="0">(85) 3512 2292</tspan></text>
    <path id="Caminho_414" data-name="Caminho 414" d="M36.443,27.34a22.5,22.5,0,0,1-6.94-1.1,1.921,1.921,0,0,0-1.986.472L24.43,30.584A29.852,29.852,0,0,1,10.884,17.156l3.834-3.264a2.007,2.007,0,0,0,.472-2.005,21.927,21.927,0,0,1-1.1-6.94A1.964,1.964,0,0,0,12.142,3H5.34C4.278,3,3,3.472,3,4.946A33.722,33.722,0,0,0,36.443,38.39a2.063,2.063,0,0,0,1.946-2.32V29.287A1.964,1.964,0,0,0,36.443,27.34Z" transform="translate(383.913 495.305)" fill="#d6a426"/>
  </g>
</svg>
