<svg id="Componente_1_1" data-name="Componente 1 – 1" xmlns="http://www.w3.org/2000/svg" width="260" height="63" viewBox="0 0 260 63">
  <g id="Retângulo_1161" data-name="Retângulo 1161" fill="none" stroke="#d6a426" stroke-width="1">
    <rect width="260" height="63" rx="31.5" stroke="none"/>
    <rect x="0.5" y="0.5" width="259" height="62" rx="31" fill="none"/>
  </g>
  <text id="_85_9_9183-9065" data-name="(85) 9 9183-9065" transform="translate(83.087 37.695)" fill="#fff" font-size="18" font-family="OpenSans-Bold, Open Sans" font-weight="700"><tspan x="0" y="0">(85) 9 9183-9065</tspan></text>
  <path id="whatsapp" d="M30.339,5.143A17.541,17.541,0,0,0,2.738,26.3L.25,35.39l9.3-2.439a17.518,17.518,0,0,0,8.38,2.135h.007a17.544,17.544,0,0,0,12.4-29.942Zm-12.4,26.981h-.006a14.558,14.558,0,0,1-7.419-2.032l-.532-.316L4.46,31.223l1.472-5.379-.347-.551a14.576,14.576,0,1,1,12.347,6.831Zm8-10.916c-.438-.219-2.592-1.279-2.994-1.426s-.694-.219-.986.219-1.132,1.426-1.388,1.718-.511.329-.949.11a11.968,11.968,0,0,1-3.524-2.175,13.217,13.217,0,0,1-2.438-3.035c-.255-.439,0-.653.192-.894a12.394,12.394,0,0,0,1.1-1.5.806.806,0,0,0-.037-.768c-.109-.219-.986-2.376-1.351-3.254-.356-.854-.717-.739-.986-.752s-.548-.015-.84-.015a1.609,1.609,0,0,0-1.169.548,4.914,4.914,0,0,0-1.533,3.655,8.524,8.524,0,0,0,1.789,4.533c.219.292,3.09,4.718,7.485,6.616a25.082,25.082,0,0,0,2.5.923,6.007,6.007,0,0,0,2.76.174A4.514,4.514,0,0,0,26.513,23.8a3.661,3.661,0,0,0,.255-2.084c-.109-.183-.4-.292-.84-.512Zm0,0" transform="translate(31.698 13)" fill="#d6a426" fill-rule="evenodd"/>
</svg>
