<svg xmlns="http://www.w3.org/2000/svg" width="198.667" height="207.802" viewBox="0 0 198.667 207.802">
  <g id="Camada_2" data-name="Camada 2" transform="translate(-1838.622 -38.13)">
    <g id="logo" transform="translate(1743.852 -42.49)">
      <g id="Grupo_379" data-name="Grupo 379" transform="translate(145.796 82.33)">
        <g id="Grupo_378" data-name="Grupo 378" transform="translate(0 0)">
          <path id="Caminho_76" data-name="Caminho 76" d="M248.437,287.865c1.245.266,2.477.6,3.736.777,1.813.249,3.64.438,5.466.541a21.759,21.759,0,0,0,3.181-.166,23.688,23.688,0,0,0,2.657-.379c.814-.173,1.6-.458,2.487-.717a7.634,7.634,0,0,0-2.265-1.338,19.713,19.713,0,0,0-6.884-1.212c-1.029-.023-2.056,0-3.175,0a8.43,8.43,0,0,1,2.969-.847,25.146,25.146,0,0,1,3.082-.086c1.029.037,2.052.189,3.075.292-.02.033-.04.07-.06.1a4.7,4.7,0,0,0-.757-.678,10.691,10.691,0,0,0-4.636-1.551,8.228,8.228,0,0,0-4.606,1.016,9.964,9.964,0,0,0-2.959,2.431c-.462.565-.887,1.152-1.328,1.73A.308.308,0,0,1,248.437,287.865Z" transform="translate(-248.42 -217.226)" fill="#fff"/>
          <path id="Caminho_77" data-name="Caminho 77" d="M484.5,202.366c-.206-3.7.11-7.3,2.308-10.534-.146.817-.349,1.627-.425,2.451-.133,1.455-.259,2.919-.259,4.377a21.745,21.745,0,0,0,.312,3.773,10.033,10.033,0,0,0,1.634,4.145c.2-.325.379-.6.531-.88a23.3,23.3,0,0,0,2.564-9.219c.136-1.541.13-3.1.123-4.646,0-1.016-.106-2.032-.189-3.045-.073-.877-.179-1.75-.272-2.667a16,16,0,0,0-5.307,3.328,9.114,9.114,0,0,0-2.643,4.334,12.659,12.659,0,0,0-.279,2.657,7.152,7.152,0,0,0,.176,1.76,14.429,14.429,0,0,0,1.621,4.141C484.4,202.356,484.446,202.356,484.5,202.366Z" transform="translate(-404.824 -152.795)" fill="#fff"/>
          <path id="Caminho_78" data-name="Caminho 78" d="M436.292,103.51a21.934,21.934,0,0,0,1.365-2.079,29.538,29.538,0,0,0,1.524-3.417,31.025,31.025,0,0,0,.96-3.46,34.4,34.4,0,0,0,.744-5.994c.05-.893.007-1.79,0-2.79-3.039.84-5.576,2.222-7.24,4.732-1.909,2.879-1.388,6.462-.189,8.983.146-1.036.223-2.086.455-3.105a23.292,23.292,0,0,1,.96-3.105,8.374,8.374,0,0,1,1.8-2.873c-.2.677-.359,1.239-.521,1.8a20.951,20.951,0,0,0-.963,6.343,25.057,25.057,0,0,0,.329,3.261,10.323,10.323,0,0,0,.568,1.68C436.153,103.5,436.222,103.5,436.292,103.51Z" transform="translate(-371.292 -85.77)" fill="#fff"/>
          <path id="Caminho_79" data-name="Caminho 79" d="M623.96,229.284a14.371,14.371,0,0,0-3.978-.644,14.578,14.578,0,0,0-2.408.166,8.868,8.868,0,0,0-4.975,2.524,11.448,11.448,0,0,0-2.67,5.5,16.259,16.259,0,0,1,7.917-5.921c-.359.3-.714.6-1.073.9s-.731.594-1.089.9a23.519,23.519,0,0,0-4.1,4.51,9.863,9.863,0,0,0-1.787,4.257c.511-.173.966-.289,1.385-.478a25.462,25.462,0,0,0,7.127-4.915,39.893,39.893,0,0,0,4.364-4.942C623.117,230.556,623.509,229.938,623.96,229.284Z" transform="translate(-489.789 -181.194)" fill="#fff"/>
          <path id="Caminho_80" data-name="Caminho 80" d="M274.84,201.819c3.49-.027,6.419,1.362,9.249,3.225a2.376,2.376,0,0,0-.183-.452,12.783,12.783,0,0,0-3.125-3.357,8.808,8.808,0,0,0-5.563-1.571,13.026,13.026,0,0,0-6.542,2.288c-.033.023-.047.07-.076.113a38.1,38.1,0,0,0,9.458,5.612,22.112,22.112,0,0,0,6.519,1.647c.355.03.714,0,1.122,0a8.862,8.862,0,0,0-2.145-2.7,24.02,24.02,0,0,0-7.137-4.2C275.9,202.211,275.365,202.019,274.84,201.819Z" transform="translate(-261.898 -161.832)" fill="#fff"/>
          <path id="Caminho_81" data-name="Caminho 81" d="M331.786,303.836c-.432-.641-.82-1.315-1.308-1.916a15.331,15.331,0,0,0-4.1-3.391c-1.279-.774-2.663-1.388-4-2.076-.053-.027-.113-.043-.146-.1,3.248.189,5.858,1.69,8.372,3.49-.173-.3-.342-.6-.518-.9a10.053,10.053,0,0,0-2.9-3.181,8.019,8.019,0,0,0-4.48-1.388A12.488,12.488,0,0,0,316.632,296a2.213,2.213,0,0,0-.292.229c4.447,3.773,9.146,7.017,15.263,7.784C331.666,303.959,331.726,303.9,331.786,303.836Z" transform="translate(-293.784 -225.098)" fill="#fff"/>
          <path id="Caminho_82" data-name="Caminho 82" d="M288.52,371.444c.8.179,1.591.405,2.4.531,1.717.269,3.44.538,5.171.7a28.914,28.914,0,0,0,3.394.027,14.8,14.8,0,0,0,2.547-.2c1.242-.246,2.454-.621,3.676-.946.073-.02.133-.1.239-.183a8.9,8.9,0,0,0-2.414-1.308,19.777,19.777,0,0,0-6.761-1.116c-1.013-.007-2.026,0-3.118,0a8.811,8.811,0,0,1,2.956-.847,27.384,27.384,0,0,1,3.175-.1c1.026.036,2.049.2,3.075.312.02-.033.043-.066.063-.1-.9-.448-1.793-.927-2.713-1.335a8.461,8.461,0,0,0-4.005-.677,8.9,8.9,0,0,0-6.064,3.049c-.608.638-1.129,1.352-1.69,2.029C288.47,371.341,288.5,371.394,288.52,371.444Z" transform="translate(-275.156 -273.069)" fill="#fff"/>
          <path id="Caminho_83" data-name="Caminho 83" d="M578.818,253.47c-6.7.631-9.568,4.865-8.292,10.341a13.148,13.148,0,0,1,4.012-7.1c-1.7,3.361-3.291,6.741-2.527,10.59.056.03.113.056.173.086.488-.495,1.02-.963,1.461-1.494a21.741,21.741,0,0,0,3.587-6.376,33.531,33.531,0,0,0,1.557-5.729A2.78,2.78,0,0,0,578.818,253.47Z" transform="translate(-463.36 -197.778)" fill="#fff"/>
          <path id="Caminho_84" data-name="Caminho 84" d="M509.971,120.09c-6.609,2.577-7.5,7.807-4.742,12.171-.153-2.746.046-5.4,1.637-7.794-.066.392-.156.78-.193,1.172a33.612,33.612,0,0,0-.3,3.819,11.439,11.439,0,0,0,1.315,5.662,1.78,1.78,0,0,0,.232.219c.3-.571.6-1.089.84-1.631a20.331,20.331,0,0,0,1.521-6.9,30.991,30.991,0,0,0-.056-3.467C510.171,122.265,510.058,121.193,509.971,120.09Z" transform="translate(-418.965 -108.693)" fill="#fff"/>
          <path id="Caminho_85" data-name="Caminho 85" d="M357.7,213.976a7.633,7.633,0,0,0-1.813-6.449c-1.919-2.022-4.5-2.564-7.389-2.607,1.571,4.965,3.64,9.528,8.126,12.915.027-.405.033-.681.06-.953a6.716,6.716,0,0,0-.385-2.836,28.033,28.033,0,0,0-1.554-3.57c-.418-.827-.986-1.587-1.488-2.378a.668.668,0,0,1-.113-.315A12.963,12.963,0,0,1,357.7,213.976Z" transform="translate(-315.264 -165.351)" fill="#fff"/>
          <path id="Caminho_86" data-name="Caminho 86" d="M362.577,157.551a13.122,13.122,0,0,1,6.741,4.33c-.116-1.856-2.448-4.829-4.334-5.586a10.47,10.47,0,0,0-7.714.189c3.334,4.075,7.024,7.595,12.294,9.225l.143-.083c-.113-.355-.2-.724-.345-1.069a11.9,11.9,0,0,0-3.138-4.174c-.97-.867-2.029-1.644-3.055-2.454A6.193,6.193,0,0,0,362.577,157.551Z" transform="translate(-321.122 -132.439)" fill="#fff"/>
          <path id="Caminho_87" data-name="Caminho 87" d="M327.43,127.109a12.513,12.513,0,0,1,4.576,6.177c.236-2.371-.06-4.629-1.823-6.469-1.929-2.012-4.487-2.58-7.333-2.6a29.7,29.7,0,0,0,3.5,7.973,16.154,16.154,0,0,0,4.606,4.915c0-.648.043-1.192-.007-1.727a15.543,15.543,0,0,0-2.7-7.007C327.974,127.946,327.7,127.528,327.43,127.109Z" transform="translate(-298.133 -111.451)" fill="#fff"/>
          <path id="Caminho_88" data-name="Caminho 88" d="M617.725,328.013a10.8,10.8,0,0,1,6.336.608c-.173,0-.342-.007-.515-.013-.2-.007-.392-.027-.588-.02a39.713,39.713,0,0,0-4.081.183,6.52,6.52,0,0,0-3.4,1.305,13.859,13.859,0,0,0,5.31,1.192,27.472,27.472,0,0,0,7.14-.764C625.39,325.948,621.119,325.722,617.725,328.013Z" transform="translate(-493.583 -246.614)" fill="#fff"/>
        </g>
        <path id="Caminho_89" data-name="Caminho 89" d="M585.068,158.92a13.8,13.8,0,0,0-1.5.179c-.926.213-1.853.442-2.75.737a11.969,11.969,0,0,0-5,3.049,9.246,9.246,0,0,0-2.584,6.5,26.445,26.445,0,0,0,.276,3.743c1.089-3.743,2.587-7.23,5.788-9.827a44.88,44.88,0,0,0-2.5,5.343,21.544,21.544,0,0,0-1.415,5.968,10.157,10.157,0,0,0,.043,1.71c.06.621.183,1.239.3,1.969.541-.508,1.049-.93,1.494-1.4A26.446,26.446,0,0,0,581.747,170a33.01,33.01,0,0,0,2.222-6.1c.389-1.561.724-3.135,1.083-4.7A1.628,1.628,0,0,0,585.068,158.92Z" transform="translate(-465.366 -134.628)" fill="#fff"/>
      </g>
      <g id="Grupo_380" data-name="Grupo 380" transform="translate(147.845 80.62)">
        <path id="Caminho_90" data-name="Caminho 90" d="M375.69,91.05c.086,1.146.173,2.288.262,3.434.01.116.03.229.05.345.206,1.322.365,2.65.631,3.962.306,1.521.694,3.029,1.069,4.536a37.734,37.734,0,0,0,2.172,6.144,26.751,26.751,0,0,0,5.267,8.037c.216-.7.462-1.352.608-2.022a15.288,15.288,0,0,0,.3-4.712c-.1-1.119-.149-2.248-.355-3.351-.246-1.325-.631-2.624-.963-3.935a38.245,38.245,0,0,0-2.142-5.924c-.04-.09-.076-.179-.116-.272,2.457,1.382,5.559,8.219,6.31,13.765a17.93,17.93,0,0,0,.478-1.833,28.913,28.913,0,0,0,.518-4.218,18.3,18.3,0,0,0-.535-3.67,9.837,9.837,0,0,0-1.893-3.879,14.449,14.449,0,0,0-4.264-3.743,22.7,22.7,0,0,0-5.177-2.222c-.611-.183-1.232-.329-1.85-.492Z" transform="translate(-335.474 -87.553)" fill="#fff"/>
        <path id="Caminho_91" data-name="Caminho 91" d="M302.054,174.414c-.246-.863-.428-1.657-.694-2.424a18.37,18.37,0,0,0-3.118-5.3,33.68,33.68,0,0,0-4.407-4.57c-.873-.754-1.763-1.491-2.63-2.255,4.666,1.471,7.92,4.606,10.8,8.2-.2-.707-.392-1.418-.6-2.125a13.77,13.77,0,0,0-1.71-3.693,11.687,11.687,0,0,0-3.47-3.46,11.938,11.938,0,0,0-3.965-1.617,14.648,14.648,0,0,0-5.174-.246c-1.232.176-2.454.4-3.68.6-.256.043-.359.163-.193.389,1.156,1.577,2.258,3.191,3.48,4.726a50.473,50.473,0,0,0,3.387,3.822c1.053,1.076,2.212,2.066,3.367,3.045a28.016,28.016,0,0,0,2.531,1.923,25.174,25.174,0,0,0,5.6,2.9A2.758,2.758,0,0,0,302.054,174.414Z" transform="translate(-273.657 -131.498)" fill="#fff"/>
        <path id="Caminho_92" data-name="Caminho 92" d="M254.59,240.135a1.334,1.334,0,0,0,.189.226c1.242.9,2.448,1.843,3.736,2.673a51.152,51.152,0,0,0,6.609,3.67,33.323,33.323,0,0,0,8.94,2.773c.9.13,1.813.183,2.723.272.036-.043.073-.086.11-.126-.452-.651-.857-1.338-1.362-1.949a16.553,16.553,0,0,0-4.184-3.61c-1.484-.907-3.022-1.747-4.6-2.507-1.282-.618-2.653-1.076-3.982-1.607a.555.555,0,0,1-.106-.08c1.973-.7,9.043,1.75,12.184,4.171-.186-.286-.362-.578-.555-.857a16.5,16.5,0,0,0-2.932-3.344,11.484,11.484,0,0,0-5.167-2.554,12.264,12.264,0,0,0-5.015.017A17.689,17.689,0,0,0,254.59,240.135Z" transform="translate(-254.59 -185.091)" fill="#fff"/>
        <path id="Caminho_93" data-name="Caminho 93" d="M268,323.443c.95.219,1.843.472,2.753.624,2.295.379,4.586.774,6.9,1.043,1.428.166,2.889.133,4.334.163a28.8,28.8,0,0,0,5.782-.472,19.275,19.275,0,0,0,4.344-1.215c.08-.037.149-.086.329-.2-.6-.365-1.122-.721-1.68-1.016a22.1,22.1,0,0,0-8.917-2.252c-1.651-.116-3.314-.083-4.975-.1-.591-.007-1.179.03-1.86.05a16.473,16.473,0,0,1,6.492-1.461,27.72,27.72,0,0,1,6.542.574c.013-.033.027-.066.043-.1a11.981,11.981,0,0,0-1.252-.787c-1.113-.535-2.225-1.089-3.384-1.518a9.979,9.979,0,0,0-3.484-.624,16.853,16.853,0,0,0-2.046.113,11.441,11.441,0,0,0-4.184,1.448,17.057,17.057,0,0,0-5.307,5.021C268.282,322.928,268.173,323.15,268,323.443Z" transform="translate(-263.547 -237.933)" fill="#fff"/>
        <path id="Caminho_94" data-name="Caminho 94" d="M468.432,124.85a14.683,14.683,0,0,0-4.052,2.328,15.225,15.225,0,0,0-2,1.926,8.735,8.735,0,0,0-2.069,5.506,12.661,12.661,0,0,0,1.813,6.37.472.472,0,0,0,.1.09c-.256-5.071.7-8.425,2.328-10.637-.13.777-.3,1.5-.359,2.228-.14,1.611-.276,3.228-.319,4.842a16.083,16.083,0,0,0,.2,3.042,11.269,11.269,0,0,0,1.743,4.722c.189-.315.375-.6.535-.893a22.2,22.2,0,0,0,2.467-8.548c.153-1.584.246-3.175.272-4.762a26.137,26.137,0,0,0-.209-3.218C468.78,126.853,468.591,125.873,468.432,124.85Z" transform="translate(-391.994 -110.162)" fill="#fff"/>
        <path id="Caminho_95" data-name="Caminho 95" d="M393.616,214.11a12.244,12.244,0,0,1,3.806,3.666,23.29,23.29,0,0,1,2.424,4.576c.023-.189.056-.382.07-.575a4.136,4.136,0,0,0,.02-.641,21.378,21.378,0,0,0-.216-2.531,8.677,8.677,0,0,0-2.836-5.124,10.737,10.737,0,0,0-5.184-2.4c-1.189-.213-2.4-.306-3.719-.465a38.3,38.3,0,0,0,3.5,8.578,22.657,22.657,0,0,0,6.934,8.017,8.98,8.98,0,0,0,.106-1.362,14.87,14.87,0,0,0-.349-2.746,26.443,26.443,0,0,0-4.47-8.867C393.669,214.2,393.642,214.153,393.616,214.11Z" transform="translate(-343.682 -167.448)" fill="#fff"/>
        <path id="Caminho_96" data-name="Caminho 96" d="M541.935,121.753c.2-3.208.863-6.27,3.015-8.89-.266,1-.555,2-.787,3.005a19.687,19.687,0,0,0-.574,4.9c.01.472-.01.946.04,1.411a9.59,9.59,0,0,0,1,3.517,10.8,10.8,0,0,0,1.016-1.441,37.671,37.671,0,0,0,1.9-4.2,26.953,26.953,0,0,0,1.435-7.871c.04-1.152.076-2.3.106-3.454a2.119,2.119,0,0,0-.056-.382c-1.757-.189-6.144,2.846-7.253,4.981C540.308,116.17,540.783,118.963,541.935,121.753Z" transform="translate(-445.792 -99.138)" fill="#fff"/>
        <path id="Caminho_97" data-name="Caminho 97" d="M356.4,270.6c-.159-.375-.306-.757-.482-1.122a12.591,12.591,0,0,0-3.347-4.131c-.91-.764-1.846-1.5-2.816-2.192-.7-.5-1.478-.9-2.225-1.342-.1-.06-.226-.093-.286-.219a15.576,15.576,0,0,1,8.345,4.6c.033-.023.07-.047.1-.066-.325-.651-.624-1.315-.98-1.949a9.379,9.379,0,0,0-2.876-3.254,8.393,8.393,0,0,0-4.686-1.478,13.31,13.31,0,0,0-5.868,1.176,2.476,2.476,0,0,1-.365.093c.289.319.531.6.784.867a39.67,39.67,0,0,0,4.138,3.826,28.021,28.021,0,0,0,7.807,4.563c.85.316,1.75.511,2.624.761C356.316,270.686,356.359,270.646,356.4,270.6Z" transform="translate(-312.251 -200.057)" fill="#fff"/>
        <path id="Caminho_98" data-name="Caminho 98" d="M528.06,254.926a18.929,18.929,0,0,0,6.064-3.381,25.771,25.771,0,0,0,4.058-3.919c1.036-1.272,2.032-2.574,3.042-3.866a.892.892,0,0,0,.073-.223c-.412-.113-.8-.242-1.205-.322a12.815,12.815,0,0,0-5.187-.063,7.9,7.9,0,0,0-4.51,2.6,11.382,11.382,0,0,0-2.238,4.51.473.473,0,0,0,0,.169c1.073-1.039,2.115-2.152,3.271-3.152a9.848,9.848,0,0,1,4.071-2.142c-.445.365-.893.731-1.338,1.093a22.739,22.739,0,0,0-4.148,4.271,9.776,9.776,0,0,0-1.919,4.071C528.07,254.67,528.073,254.767,528.06,254.926Z" transform="translate(-437.243 -189.019)" fill="#fff"/>
        <path id="Caminho_99" data-name="Caminho 99" d="M533.331,175.59c-6.174,2.139-8.073,6.914-5.337,11.945,0-2.763.352-5.35,2.029-7.628-.02.093-.033.189-.056.282a22.867,22.867,0,0,0-.674,5.367,10.558,10.558,0,0,0,.973,4.809c.053.1.109.2.232.425.345-.594.671-1.1.937-1.627a18.621,18.621,0,0,0,1.866-7.034c.1-1.408.106-2.823.123-4.237C533.434,177.138,533.368,176.39,533.331,175.59Z" transform="translate(-436.384 -144.051)" fill="#fff"/>
        <path id="Caminho_100" data-name="Caminho 100" d="M562.186,308.73c-5.108-3.885-10.421-2.956-13.592,1.86a14.134,14.134,0,0,1,7.974-2.3c-.093.033-.189.07-.286.1a26.317,26.317,0,0,0-5.224,2.232,11.57,11.57,0,0,0-3.872,3.274c-.063.093-.123.189-.266.408.717-.03,1.342-.023,1.959-.083a21.5,21.5,0,0,0,7.349-2.129c1.332-.644,2.624-1.372,3.912-2.092C560.831,309.614,561.476,309.172,562.186,308.73Z" transform="translate(-449.84 -231.363)" fill="#fff"/>
        <path id="Caminho_101" data-name="Caminho 101" d="M577.16,354.909c4.081,1.976,10.444,1.75,15.449.571-2.75-5.2-8-6.286-12.543-3.171a13.864,13.864,0,0,1,8.07.8c-1.332-.043-2.58-.173-3.812-.1-1.335.08-2.663.325-3.988.535a7.7,7.7,0,0,0-3.015,1.216A1.349,1.349,0,0,0,577.16,354.909Z" transform="translate(-470.037 -260.924)" fill="#fff"/>
        <path id="Caminho_102" data-name="Caminho 102" d="M606.016,299.709c3.839-.485,6.622.156,7.738.88-.827-.033-1.647-.083-2.471-.1-.651-.01-1.3,0-1.949.043a17.016,17.016,0,0,0-2.142.219,10.089,10.089,0,0,0-3.9,1.421c-.046.033-.086.076-.2.176.362.153.674.309,1,.422a20.475,20.475,0,0,0,6.018,1,37.307,37.307,0,0,0,6.964-.561c.405-.063.8-.186,1.192-.282a8.777,8.777,0,0,0-5.217-4.606A8.671,8.671,0,0,0,606.016,299.709Z" transform="translate(-487.356 -225.852)" fill="#fff"/>
        <path id="Caminho_103" data-name="Caminho 103" d="M497.747,80.62c-4.038,1-7.09,4.115-4.908,9.222a10.561,10.561,0,0,1,1.886-5.885c-.252,1.4-.551,2.79-.741,4.191a8.57,8.57,0,0,0,.558,4.247c.047.017.093.033.139.046.319-.478.671-.936.946-1.435a17.831,17.831,0,0,0,2.042-7.243c.083-.92.093-1.843.13-2.766A1.946,1.946,0,0,0,497.747,80.62Z" transform="translate(-413.233 -80.62)" fill="#fff"/>
        <path id="Caminho_104" data-name="Caminho 104" d="M422.142,167.091a15.42,15.42,0,0,0,5.041,5.722c.359.223.76.379,1.209.6a8.327,8.327,0,0,0-.877-3.122,19.8,19.8,0,0,0-3.676-5.33c-.638-.681-1.312-1.328-1.986-2.009-2.554,4.357-1.01,8.13,3.457,9.793A10.523,10.523,0,0,1,422.142,167.091Z" transform="translate(-365.484 -135.609)" fill="#fff"/>
        <path id="Caminho_105" data-name="Caminho 105" d="M630.881,272.392a7.49,7.49,0,0,0-5.7-2.318,6.786,6.786,0,0,0-4.862,2.8,11.639,11.639,0,0,1,6.429-1.252c-3.012.721-5.888,1.508-8.023,3.955a7.14,7.14,0,0,0,1.345.11c1.348-.156,2.7-.329,4.028-.561a18.307,18.307,0,0,0,4.324-1.491C629.241,273.272,630.014,272.833,630.881,272.392Z" transform="translate(-497.802 -207.149)" fill="#fff"/>
        <path id="Caminho_106" data-name="Caminho 106" d="M614.856,192.691a9.87,9.87,0,0,1,4.277-3.779c-.641.658-1.285,1.242-1.833,1.9a24.283,24.283,0,0,0-1.538,2.145,4.992,4.992,0,0,0-.814,2.5,13.045,13.045,0,0,0,1.312-.611,14.5,14.5,0,0,0,3.254-2.643,21.44,21.44,0,0,0,1.455-1.664c.681-.93,1.292-1.9,1.933-2.856-.023-.05-.043-.1-.066-.149a24.207,24.207,0,0,0-2.5-.093,6.03,6.03,0,0,0-2.869.757,5.169,5.169,0,0,0-2.152,2.531c-.249.614-.4,1.269-.588,1.9C614.77,192.651,614.813,192.671,614.856,192.691Z" transform="translate(-495.131 -151.96)" fill="#fff"/>
      </g>
      <g id="Grupo_381" data-name="Grupo 381" transform="translate(207.562 126.229)">
        <path id="Caminho_107" data-name="Caminho 107" d="M442.079,217.96c.189.4.389.784.565,1.182a12.161,12.161,0,0,1,1.036,4.218c.11,1.973.2,3.952.179,5.924-.013,1.368-.222,2.736-.349,4.1-.09.953-.176,1.906-.289,2.853-.126,1.023-.279,2.039-.428,3.059-.166,1.122-.329,2.248-.508,3.371-.189,1.182-.392,2.361-.594,3.54q-.354,2.062-.717,4.121c-.2,1.1-.4,2.2-.6,3.3-.239,1.342-.475,2.687-.717,4.028-.262,1.478-.531,2.956-.794,4.433q-.314,1.788-.614,3.58c-.179,1.043-.362,2.086-.531,3.128-.176,1.076-.335,2.155-.5,3.231-.186,1.2-.385,2.394-.551,3.593-.176,1.265-.315,2.534-.482,3.8-.146,1.113-.322,2.222-.455,3.334-.12,1-.193,2-.3,3-.116,1.136-.256,2.265-.365,3.4-.083.863-.143,1.727-.2,2.594-.1,1.734-.189,3.47-.286,5.2-.027.465-.083.927-.09,1.391-.036,3.626-.1,7.25-.083,10.876.01,1.8.159,3.6.272,5.393.063,1,.163,2,.279,3q.249,2.107.555,4.208c.2,1.4.382,2.8.674,4.181.531,2.5,1.1,4.988,1.734,7.462.408,1.6.9,3.181,1.461,4.729q1.081,2.974,2.348,5.878A49.671,49.671,0,0,0,444.1,348.9c1.262,2.205,4.058,6.519,4.161,6.572-.166-.694-.329-1.328-.465-1.969-.4-1.853-.83-3.7-1.179-5.569-.3-1.614-.541-3.241-.75-4.868-.149-1.162-.232-2.338-.286-3.51-.09-2.022-.2-4.045-.173-6.067.017-1.528.209-3.052.355-4.573a40.022,40.022,0,0,1,2.252-9.734,33.746,33.746,0,0,1,3.357-6.944,48.592,48.592,0,0,1,3.5-4.958,65.875,65.875,0,0,1,5.3-5.592,77.534,77.534,0,0,1,8.953-7.127c1.966-1.362,3.932-2.726,5.881-4.111,2.776-1.973,5.559-3.935,8.3-5.954,1.179-.867,2.288-1.833,3.381-2.806,1.229-1.1,2.411-2.252,3.6-3.4.405-.392.751-.847,1.209-1.375-1.441.468-2.733.93-4.052,1.305-3.308.94-6.609,1.91-9.943,2.74-2.242.558-4.53.923-6.808,1.328a26.338,26.338,0,0,1-2.76.292c-1.641.113-3.281.289-4.922.266a20.056,20.056,0,0,1-7.917-1.514,10.97,10.97,0,0,1-5.34-4.839,17.014,17.014,0,0,1-1.75-5.383,37.463,37.463,0,0,1-.352-7.11c.027-1.375.146-2.753.279-4.125.153-1.561.369-3.118.551-4.679.133-1.162.242-2.328.382-3.494.176-1.465.388-2.929.551-4.4.123-1.106.213-2.215.286-3.324.11-1.7.2-3.407.286-5.111a21.846,21.846,0,0,0,.083-2.374c-.113-1.77-.269-3.54-.458-5.307a20.944,20.944,0,0,0-1.488-5.712,17.823,17.823,0,0,0-2.537-4.357A14.285,14.285,0,0,0,442.079,217.96Z" transform="translate(-434.412 -217.96)" fill="#fff"/>
        <path id="Caminho_108" data-name="Caminho 108" d="M486.709,355.9a8.771,8.771,0,1,0,8.053-8.731A8.664,8.664,0,0,0,486.709,355.9Z" transform="translate(-469.338 -304.246)" fill="#fff"/>
      </g>
      <g id="Grupo_382" data-name="Grupo 382" transform="translate(163.397 150.14)">
        <path id="Caminho_109" data-name="Caminho 109" d="M339.507,289.96a14.7,14.7,0,0,0-1.933,1.674,22.75,22.75,0,0,0-2.3,3.308,14.113,14.113,0,0,0-1.455,4.706,29.939,29.939,0,0,0-.379,6.041c.063,1.627.246,3.251.385,4.875.09,1.016.183,2.036.306,3.049.146,1.2.335,2.394.485,3.593.12.966.219,1.933.309,2.9.143,1.511.309,3.022.385,4.536a23.05,23.05,0,0,1-.086,2.989,24.858,24.858,0,0,1-.412,3.218,8.775,8.775,0,0,1-4.334,6.14,10.7,10.7,0,0,1-4.5,1.375,35.432,35.432,0,0,1-4.925.169c-2.072-.143-4.135-.511-6.19-.837a69.5,69.5,0,0,1-9.076-2.2l-4.364-1.3c.252.312.418.558.621.767a51.741,51.741,0,0,0,8.242,6.731c2.544,1.71,5.108,3.394,7.615,5.151,1.943,1.362,3.866,2.756,5.7,4.247a60.637,60.637,0,0,1,4.766,4.32,30.6,30.6,0,0,1,6.971,11.328,34.507,34.507,0,0,1,1.312,5.446,38.468,38.468,0,0,1,.362,7.738,42.6,42.6,0,0,1-.584,5.224c-.435,2.62-.986,5.224-1.478,7.8a8.05,8.05,0,0,0,.535-.711c1.235-2.052,2.56-4.065,3.67-6.184a48.144,48.144,0,0,0,3.905-10.268c.379-1.455.77-2.909,1.076-4.38.269-1.289.452-2.6.624-3.905.2-1.518.359-3.039.5-4.563.1-1,.159-2.012.2-3.019q.08-1.978.1-3.962c.017-1.817.027-3.633,0-5.446-.023-1.2-.1-2.4-.2-3.6-.143-1.7-.325-3.4-.492-5.1-.1-1.049-.179-2.1-.309-3.145-.173-1.388-.392-2.77-.588-4.155-.143-1.01-.262-2.019-.415-3.025q-.254-1.694-.545-3.387c-.213-1.252-.435-2.5-.658-3.753q-.369-2.062-.751-4.121t-.757-4.118c-.246-1.342-.5-2.683-.741-4.025-.226-1.249-.452-2.5-.661-3.749s-.418-2.507-.594-3.766c-.133-.946-.189-1.906-.319-2.853a34.879,34.879,0,0,1-.279-6.253,11.568,11.568,0,0,1,1.089-4.849c.093-.179.2-.352.3-.525C339.6,290.05,339.554,290,339.507,289.96Z" transform="translate(-301.42 -289.96)" fill="#fff"/>
        <path id="Caminho_110" data-name="Caminho 110" d="M359.422,386.93a6.588,6.588,0,1,0,6.834,6.476A6.619,6.619,0,0,0,359.422,386.93Z" transform="translate(-335.614 -354.724)" fill="#fff"/>
      </g>
      <g id="Grupo_385" data-name="Grupo 385" transform="translate(94.77 261.005)">
        <g id="Grupo_383" data-name="Grupo 383" transform="translate(0 0.302)">
          <path id="Caminho_111" data-name="Caminho 111" d="M94.77,624.71h8.8l10.75,16.651h.2l-.7-16.651h7.751l.066,26.4h-8.4Z" transform="translate(-94.77 -624.71)" fill="#fff"/>
        </g>
        <path id="Caminho_112" data-name="Caminho 112" d="M185.02,624.315h5.948l.007,3.228h.206a8.837,8.837,0,0,1,7.439-3.743,9.159,9.159,0,0,1,8.279,4.766,9.414,9.414,0,0,1,8.282-4.766c4.716,0,8.3,3.128,8.947,6.818a21.429,21.429,0,0,1,.143,3.128v16.81h-6.1l-.027-15.223a17.578,17.578,0,0,0-.12-2.408c-.389-2.205-2.046-3.743-4.815-3.743-4.1,0-5.483,2.922-5.486,6.665l-.013,14.712h-6.1l-.027-15.223a17.577,17.577,0,0,0-.12-2.408c-.389-2.205-2.046-3.743-4.815-3.743-4.1,0-5.483,2.922-5.486,6.665l-.013,14.712h-6.1Z" transform="translate(-155.049 -623.8)" fill="#fff"/>
        <path id="Caminho_113" data-name="Caminho 113" d="M309.633,644.46a9.425,9.425,0,0,1-.159-2.049c-.05-1.435,0-2.922-.033-7.432.046-6.409,3.856-10.1,9.7-10.1,2.77,0,6.267,1.229,7.758,4.151h.206l.023-3.64h4.357l.013,25.883H327.14l.01-4H327a9.693,9.693,0,0,1-7.89,4.663C314.235,651.945,310.466,649.179,309.633,644.46Zm17.345-3.381v-5.792a5.8,5.8,0,0,0-.08-1.332c-.618-3.484-3.753-5.277-6.881-5.277a5.59,5.59,0,0,0-5.964,6l-.033,7.638a8.52,8.52,0,0,0,.106,1.179c.515,2.922,3.012,4.56,6.137,4.56A6.683,6.683,0,0,0,326.978,641.079Z" transform="translate(-238.15 -624.521)" fill="#fff"/>
        <path id="Caminho_114" data-name="Caminho 114" d="M401.69,647.9l2.331-2.77a12.563,12.563,0,0,0,7.917,3.025c2.819,0,6.426-.767,5.792-4.357-.372-2.1-2.8-3.075-6-4.048-4.623-1.484-8.223-2.716-8.983-7.024-.88-4.971,2.843-8,8.787-8a14.057,14.057,0,0,1,9.345,2.972l-2.228,2.77a12.629,12.629,0,0,0-6.911-2.255c-2.819,0-5.4,1.332-4.915,4.1.272,1.534,1.69,2.3,4,3.178,4.493,1.641,10.335,3.075,11.132,7.585,1.152,6.509-4.2,8.714-9.584,8.714C408.375,651.8,404.33,650.666,401.69,647.9Z" transform="translate(-299.765 -624.421)" fill="#fff"/>
        <path id="Caminho_115" data-name="Caminho 115" d="M387.036,624.41c-4,.027-4.536,8.717-4.536,8.717-.033.455-.066.9-.08,1.342s-.03.85-.03,1.232v15.2h4.663Z" transform="translate(-286.874 -624.207)" fill="#fff"/>
        <g id="Grupo_384" data-name="Grupo 384" transform="translate(123.564 14.436)">
          <path id="Caminho_116" data-name="Caminho 116" d="M466.85,668.14h1.893l3.291,9.913h.023l3.361-9.913h1.8l-4.33,12.214h-1.75Z" transform="translate(-466.85 -667.851)" fill="#fff"/>
          <path id="Caminho_117" data-name="Caminho 117" d="M502.56,676.5c0-2.64,2.345-3.66,4.4-3.66h3.381v-1.7c0-1.743-1.136-2.374-2.839-2.374-1.395,0-2.816.508-2.816,1.89v.412h-1.611v-.362c0-2.471,2.272-3.367,4.5-3.367,2.391,0,4.543.847,4.543,3.587v5.888c0,.677.093,2.471.166,2.956h-1.727c-.047-.362-.093-1.4-.12-1.72h-.046a4.024,4.024,0,0,1-3.882,1.986C504.287,680.039,502.56,678.754,502.56,676.5Zm7.784-1.162v-1.162h-3.075c-1.514,0-2.959.412-2.959,2.228,0,1.478,1.232,2.205,2.673,2.205C509.351,678.608,510.344,677.253,510.344,675.337Z" transform="translate(-490.701 -667.317)" fill="#fff"/>
          <path id="Caminho_118" data-name="Caminho 118" d="M539.4,675.214V672.5c0-3.225,2.036-5.091,4.922-5.091,2.723,0,4.686,1.574,4.686,4.218v.315h-1.7v-.412a2.659,2.659,0,0,0-2.959-2.617c-1.966,0-3.125,1.382-3.125,3.417v2.932c0,1.963,1.016,3.321,3.148,3.321a2.622,2.622,0,0,0,2.936-2.594v-.339h1.7v.266c0,2.617-1.893,4.218-4.639,4.218C541.412,680.132,539.4,678.366,539.4,675.214Z" transform="translate(-515.307 -667.364)" fill="#fff"/>
          <path id="Caminho_119" data-name="Caminho 119" d="M591.713,667.606h1.7v2.109h.047a4.325,4.325,0,0,1,3.905-2.374c2.534,0,3.809,1.7,3.809,4.025v8.409H599.4v-7.731c0-2.155-.993-3.125-2.58-3.125a3.406,3.406,0,0,0-3.361,3.683v7.173h-1.75V667.606Z" transform="translate(-550.245 -667.317)" fill="#fff"/>
          <path id="Caminho_120" data-name="Caminho 120" d="M628.29,676.5c0-2.64,2.345-3.66,4.4-3.66h3.384v-1.7c0-1.743-1.136-2.374-2.839-2.374-1.395,0-2.816.508-2.816,1.89v.412h-1.611v-.362c0-2.471,2.271-3.367,4.5-3.367,2.391,0,4.543.847,4.543,3.587v5.888c0,.677.093,2.471.166,2.956H636.29c-.047-.362-.093-1.4-.12-1.72h-.047a4.024,4.024,0,0,1-3.882,1.986C630.017,680.039,628.29,678.754,628.29,676.5Zm7.784-1.162v-1.162H633c-1.514,0-2.959.412-2.959,2.228,0,1.478,1.232,2.205,2.673,2.205C635.081,678.608,636.074,677.253,636.074,675.337Z" transform="translate(-574.677 -667.317)" fill="#fff"/>
          <path id="Caminho_121" data-name="Caminho 121" d="M664.35,678.076l1.205-1.016a4.673,4.673,0,0,0,3.6,1.5c1.421,0,2.886-.751,2.886-2.182,0-1.358-.827-1.743-2.461-2.059l-1.371-.292c-2.059-.412-3.338-1.381-3.338-3.125,0-2.109,1.68-3.636,4.261-3.636a5.112,5.112,0,0,1,4.141,1.528l-1.206.946a4.248,4.248,0,0,0-3.029-1.066c-1.445,0-2.437.8-2.437,1.963s.97,1.551,2.58,1.89l1.773.388c1.75.389,2.912,1.358,2.912,3.152,0,2.643-2.391,3.952-4.686,3.952A5.91,5.91,0,0,1,664.35,678.076Z" transform="translate(-598.762 -667.27)" fill="#fff"/>
        </g>
        <path id="Caminho_122" data-name="Caminho 122" d="M578.1,668.27c-1.5.01-1.7,3.278-1.7,3.278-.013.169-.023.339-.03.5s-.01.319-.01.462v7.854h1.75Z" transform="translate(-416.428 -653.502)" fill="#fff"/>
      </g>
    </g>
  </g>
</svg>
